<svg width="105" height="56" viewBox="0 0 105 56" fill="none" xmlns="http://www.w3.org/2000/svg">
<g filter="url(#filter0_d)">
<path d="M70.691 21.0742C66.8127 21.0742 63.6615 24.2254 63.6615 28.1037C63.6615 31.982 66.8127 35.1332 70.691 35.1332C74.5693 35.1248 77.7121 31.982 77.7205 28.1037C77.7205 24.2254 74.5777 21.0742 70.691 21.0742ZM70.6826 33.4782C67.7154 33.4782 65.3081 31.071 65.3081 28.1037V28.0953C65.3081 25.1281 67.707 22.7292 70.6743 22.7292H70.6826C73.6499 22.7292 76.0571 25.1364 76.0571 28.1037C76.0571 31.071 73.6499 33.4782 70.6826 33.4782Z" fill="#46BBB3"/>
<path d="M88.16 21.0755C86.0871 21.0755 84.1229 21.9949 82.7939 23.583V14.8651C82.7939 14.4054 82.4178 14.0293 81.958 14.0293C81.4983 14.0293 81.1222 14.4054 81.1222 14.8651V28.105C81.1222 31.9833 84.2733 35.1345 88.1517 35.1345C92.03 35.1345 95.1812 31.9833 95.1812 28.105C95.1812 24.2267 92.0384 21.0839 88.16 21.0755ZM88.1684 33.4795C85.2011 33.4795 82.7939 31.0723 82.7939 28.105C82.7939 25.1377 85.2011 22.7305 88.1684 22.7305C91.1357 22.7305 93.5429 25.1377 93.5429 28.105C93.5429 31.0723 91.1357 33.4795 88.1684 33.4795Z" fill="#46BBB3"/>
<path d="M59.3986 21.3086C58.9389 21.3086 58.5628 21.6847 58.5628 22.1444V38.8614C58.5628 39.6471 58.2953 40.4161 57.8021 41.0346C57.5347 41.4108 57.6183 41.929 57.986 42.2048C58.312 42.4388 58.7634 42.4138 59.0559 42.1296L59.1061 42.0711L59.1562 42.0042C59.8583 41.1098 60.2428 39.9982 60.2428 38.8614C60.2428 38.7695 60.2428 38.6859 60.2428 38.5939L60.2345 22.1444C60.2345 21.6847 59.8583 21.3086 59.3986 21.3086Z" fill="#46BBB3"/>
<path d="M59.4571 14.2461C58.9973 14.2461 58.6212 14.6222 58.6212 15.0819V16.2271C58.6212 16.6868 58.9973 17.0629 59.4571 17.0629C59.9168 17.0629 60.2929 16.6868 60.2929 16.2271V15.0736C60.2929 14.6139 59.9168 14.2461 59.4571 14.2461Z" fill="#46BBB3"/>
<path d="M48.1145 21.0753C46.961 21.0753 45.8744 21.3595 44.9132 21.8526C41.7871 13.2183 32.5343 8.2283 23.4653 10.5854C13.8531 13.0846 8.07737 22.9142 10.5849 32.5348C13.0841 42.1554 22.9137 47.9227 32.5343 45.4152C38.2264 43.9358 42.7985 39.7649 44.838 34.3235C45.8159 34.8417 46.9276 35.1343 48.1145 35.1343C51.9929 35.1343 55.144 31.9831 55.144 28.1048C55.144 24.2264 52.0012 21.0753 48.1145 21.0753ZM37.6664 34.0978C37.6998 34.5575 37.3571 34.9671 36.8974 35.0005C36.4377 35.034 36.0281 34.6913 35.9947 34.2316C35.9947 34.1898 35.9947 34.1396 35.9947 34.0978V26.3244C35.9947 24.4438 34.532 22.8807 32.6513 22.7637H32.4424C30.7121 22.7637 29.2327 24.0008 28.9318 25.6975C28.89 25.9065 28.8733 26.1155 28.8733 26.3244V33.2118V33.2536C28.8482 33.6966 28.4804 34.0477 28.0374 34.0477C27.887 34.0477 27.7365 34.0059 27.6111 33.9306C27.3688 33.7886 27.2183 33.5378 27.2016 33.2536V33.2118V26.3244C27.2016 26.1155 27.1765 25.9065 27.1431 25.6975C26.8422 24.0008 25.3627 22.7637 23.6325 22.7637H23.4235C21.5429 22.8807 20.0802 24.4438 20.0802 26.3244V34.0978C20.0802 34.1396 20.0802 34.1898 20.0802 34.2316C20.0467 34.6913 19.6372 35.034 19.1774 35.0005C18.7177 34.9671 18.375 34.5575 18.4085 34.0978V26.3244C18.4085 26.0402 18.4252 25.7644 18.4753 25.4886C18.8849 22.9476 21.0832 21.0753 23.6576 21.0837C24.226 21.0837 24.7943 21.1756 25.3293 21.3595C25.7556 21.5016 26.1651 21.7022 26.5329 21.9529L27.4273 22.5464C27.6111 22.6718 27.8285 22.7386 28.0458 22.7386C28.2715 22.7386 28.4888 22.6718 28.6727 22.5464L29.567 21.9529C29.9264 21.6855 30.3109 21.4681 30.7289 21.3093C31.2722 21.1338 31.8322 21.0335 32.4006 21.0335C35 21.0251 37.2067 22.9225 37.5995 25.4886C37.6413 25.7644 37.6664 26.0486 37.6664 26.3244V34.0978ZM48.1145 33.4793C47.0948 33.4793 46.1503 33.1867 45.3311 32.702C45.1473 32.5933 44.9717 32.4679 44.8046 32.3425C44.7962 32.3342 44.7795 32.3258 44.7711 32.3175C44.5956 32.1754 44.4201 32.0249 44.2613 31.8661L44.2529 31.8577C44.1024 31.7073 43.9687 31.5485 43.8433 31.3813C43.8183 31.3479 43.8015 31.3228 43.7765 31.2894C43.6594 31.1306 43.5508 30.9634 43.4505 30.7962C43.4421 30.7795 43.4338 30.7711 43.4254 30.7544C43.2081 30.3783 43.0493 29.9687 42.9323 29.5508C42.9239 29.509 42.9072 29.4672 42.8988 29.4254C42.857 29.2583 42.8236 29.0911 42.7985 28.9156C42.7902 28.8654 42.7818 28.8153 42.7734 28.7651C42.7484 28.5478 42.7317 28.3305 42.7317 28.1131C42.7317 27.8875 42.7484 27.6618 42.7734 27.4445C42.7818 27.4027 42.7818 27.3692 42.7902 27.3274C42.8152 27.1352 42.857 26.943 42.9072 26.7507C42.9155 26.7256 42.9155 26.7089 42.9239 26.6838C43.2917 25.3465 44.1693 24.1847 45.4064 23.4658C45.4064 23.4658 45.4064 23.4658 45.4064 23.4575C46.2004 22.9977 47.1199 22.7303 48.0978 22.7303H48.1062C51.0734 22.7303 53.4807 25.1375 53.4807 28.1048C53.489 31.072 51.0818 33.4793 48.1145 33.4793Z" fill="#46BBB3"/>
<path d="M19.1776 35.0003C19.6373 35.0337 20.0469 34.691 20.0803 34.2313C20.0803 34.1895 20.0803 34.1393 20.0803 34.0975V26.3242C20.0803 24.4435 21.5431 22.8805 23.4237 22.7634H23.6327C25.3629 22.7634 26.8423 24.0005 27.1432 25.6973C27.1767 25.9062 27.2018 26.1152 27.2018 26.3242V33.2115V33.2533C27.2185 33.5375 27.3689 33.7883 27.6113 33.9304C27.7367 34.0056 27.8871 34.0474 28.0376 34.0474C28.4806 34.0474 28.8484 33.6963 28.8734 33.2533V33.2115V26.3242C28.8734 26.1152 28.8902 25.9062 28.932 25.6973C29.2329 24.0005 30.7123 22.7634 32.4425 22.7634H32.6515C34.5321 22.8805 35.9949 24.4435 35.9949 26.3242V34.0975C35.9949 34.1393 35.9949 34.1895 35.9949 34.2313C36.0283 34.691 36.4379 35.0337 36.8976 35.0003C37.3573 34.9668 37.7 34.5573 37.6666 34.0975V26.3242C37.6666 26.0483 37.6415 25.7641 37.5997 25.4883C37.2069 22.9222 35.0002 21.0249 32.4007 21.0332C31.8324 21.0332 31.2723 21.1335 30.729 21.3091C30.3111 21.4679 29.9266 21.6852 29.5672 21.9527L28.6728 22.5461C28.489 22.6715 28.2716 22.7384 28.046 22.7384C27.8286 22.7384 27.6113 22.6715 27.4274 22.5461L26.5331 21.9527C26.1653 21.7019 25.7557 21.5013 25.3295 21.3592C24.7945 21.1753 24.2261 21.0834 23.6578 21.0834C21.0833 21.075 18.8851 22.9473 18.4755 25.4883C18.4253 25.7641 18.4086 26.04 18.4086 26.3242V34.0975C18.3752 34.5656 18.7179 34.9668 19.1776 35.0003Z" fill="white"/>
</g>
<defs>
<filter id="filter0_d" x="-2" y="-2" width="109" height="60" filterUnits="userSpaceOnUse" color-interpolation-filters="sRGB">
<feFlood flood-opacity="0" result="BackgroundImageFix"/>
<feColorMatrix in="SourceAlpha" type="matrix" values="0 0 0 0 0 0 0 0 0 0 0 0 0 0 0 0 0 0 127 0"/>
<feOffset/>
<feGaussianBlur stdDeviation="1"/>
<feColorMatrix type="matrix" values="0 0 0 0 1 0 0 0 0 1 0 0 0 0 1 0 0 0 0.5 0"/>
<feBlend mode="normal" in2="BackgroundImageFix" result="effect1_dropShadow"/>
<feBlend mode="normal" in="SourceGraphic" in2="effect1_dropShadow" result="shape"/>
</filter>
</defs>
</svg>
